<svg xmlns="http://www.w3.org/2000/svg" viewBox="0 0 600 800" width="600" height="800" role="img" aria-label="GENSHIN IMPACT cover">
  <defs>
    <linearGradient id="bg" x1="0" y1="0" x2="1" y2="1">
      <stop offset="0" stop-color="#39b6f2"/><stop offset="1" stop-color="#0e3a6b"/>
    </linearGradient>
    <radialGradient id="gl" cx="50%" cy="32%" r="65%">
      <stop offset="0" stop-color="#ffffff" stop-opacity=".30"/><stop offset="1" stop-color="#ffffff" stop-opacity="0"/>
    </radialGradient>
    <linearGradient id="vig" x1="0" y1="0" x2="0" y2="1">
      <stop offset="0" stop-color="#000" stop-opacity="0"/><stop offset="1" stop-color="#000" stop-opacity=".45"/>
    </linearGradient>
  </defs>
  <rect width="600" height="800" fill="url(#bg)"/>
  <rect width="600" height="800" fill="url(#gl)"/>
  <g opacity=".12" stroke="#fff" stroke-width="2" fill="none">
    <circle cx="300" cy="290" r="120"/><circle cx="300" cy="290" r="180"/><circle cx="300" cy="290" r="240"/>
  </g>
  <g opacity=".10" fill="#fff">
    <polygon points="300,90 330,150 300,150"/><polygon points="120,640 180,640 150,700"/><polygon points="470,150 520,150 495,200"/>
  </g>
  <polygon points="300,150 412,213 412,337 300,400 188,337 188,213" fill="#fff" fill-opacity=".10"/>
  <polygon points="300,180 386,228 386,322 300,370 214,322 214,228" fill="#fff" fill-opacity=".14"/>
  <circle cx="300" cy="275" r="44" fill="#bfe6ff" fill-opacity=".9"/>
  <text x="300" y="292" text-anchor="middle" font-family="Inter,Arial,sans-serif" font-size="46" font-weight="900" fill="#0e3a6b">G</text>
  <rect width="600" height="800" fill="url(#vig)"/>
  <text x="300" y="410" text-anchor="middle" font-family="Inter,Arial,sans-serif" font-size="64" font-weight="800" fill="#fff" letter-spacing="1">GENSHIN</text>
  <text x="300" y="474" text-anchor="middle" font-family="Inter,Arial,sans-serif" font-size="64" font-weight="800" fill="#fff" letter-spacing="1">IMPACT</text>
  <text x="300" y="560" text-anchor="middle" font-family="Inter,Arial,sans-serif" font-size="22" font-weight="600" fill="#bfe6ff" letter-spacing="3">HOYOVERSE</text>
  <rect x="0" y="720" width="600" height="80" fill="#000" fill-opacity=".25"/>
  <text x="300" y="770" text-anchor="middle" font-family="Inter,Arial,sans-serif" font-size="24" font-weight="700" fill="#fff" letter-spacing="2">TOP UP</text>
</svg>
